<svg width="1649" height="974" viewBox="0 0 1649 974" fill="none" xmlns="http://www.w3.org/2000/svg">
<g clip-path="url(#clip0_1165_11785)">
<path d="M1649 0H0V977H1649V0Z" fill="#DCE2E8"/>
<path d="M500.884 861.961C388.236 835.338 270.642 822.637 155.315 838.269C102.547 845.23 50.5006 858.542 0 879.059V977.003H869.641C750.192 936.458 631.773 893.836 511.396 864.404C507.892 863.549 504.388 862.816 500.884 861.961Z" fill="#D2DCE4" fill-opacity="0.16"/>
<path d="M1649 0H0V879.056C50.5006 858.539 102.547 845.105 155.315 838.144C270.642 822.634 388.236 835.213 500.884 861.836C504.388 862.691 507.892 863.546 511.396 864.279C631.773 893.589 750.192 936.332 869.641 976.878H1649V0Z" fill="#C9D6E1" fill-opacity="0.16"/>
<path d="M493.051 709.546C496.349 710.523 499.647 711.622 502.842 712.599C705.051 776.715 903.446 875.636 1114.52 928.272C1294.05 972.97 1474.72 963.933 1649 915.815V0H0V702.097C53.9017 680.603 109.762 668.268 166.034 664.36C276.62 656.3 387.206 676.817 493.051 709.546Z" fill="#BFD0DD" fill-opacity="0.16"/>
<path d="M0 0V524.405C57.3027 501.934 116.976 491.065 176.649 490.576C282.597 489.599 386.072 518.298 485.115 557.134C488.207 558.355 491.196 559.577 494.288 560.798C683.51 636.516 871.187 739.223 1073.91 795.4C1266.33 848.769 1461.74 837.411 1648.9 780.012V0H0Z" fill="#B6CADA" fill-opacity="0.16"/>
<path d="M187.368 316.792C288.575 324.12 385.145 359.78 477.282 404.844C480.168 406.188 482.951 407.653 485.837 408.997C662.073 496.438 839.032 602.565 1033.41 662.65C1238.3 725.911 1449.16 712.477 1649 644.576V0H0V345.858C60.8069 321.922 124.293 312.274 187.368 316.792Z" fill="#ACC4D6" fill-opacity="0.16"/>
<path d="M1649 0H0V166.456C64.2079 140.932 131.611 132.872 198.086 143.008C294.553 157.785 384.114 201.262 469.45 252.432C472.129 254.02 474.706 255.608 477.386 257.195C640.637 356.239 806.876 465.907 993.007 529.778C1209.95 604.274 1437 589.62 1649.1 509.505V0H1649Z" fill="#A5BCCD" fill-opacity="0.16"/>
<path d="M468.83 105.394C619.095 216.161 774.617 328.883 952.399 396.906C1167.39 479.218 1396.91 471.158 1609.84 390.434C1623.03 385.426 1636.01 380.175 1649.1 374.679V0H296.922C354.637 26.0126 408.951 61.7952 461.513 100.142C463.986 101.852 466.357 103.684 468.83 105.394Z" fill="#9DB3C4" fill-opacity="0.16"/>
<path d="M1649 0H513.25C634.967 104.783 764.207 200.896 911.896 264.034C1109.57 348.545 1324.15 355.262 1525.12 289.803C1567.17 276.125 1608.7 259.027 1649.1 238.877V0H1649Z" fill="#96ABBA" fill-opacity="0.16"/>
<path d="M1440.3 189.05C1488.94 176.104 1536.76 158.152 1583.14 135.559C1605.51 124.69 1627.46 112.599 1649 99.5319V0H663.102C727.928 50.9261 796.774 95.5018 871.391 131.162C1051.65 217.505 1251.38 239.487 1440.3 189.05Z" fill="#8EA2B1" fill-opacity="0.16"/>
<path d="M1355.58 88.4185C1433.18 73.0307 1509.04 43.1101 1579.02 0H833.875C996.405 86.7087 1179.75 123.346 1355.58 88.4185Z" fill="#879AA8" fill-opacity="0.16"/>
</g>
<defs>
<clipPath id="clip0_1165_11785">
<rect width="1649" height="977" fill="white"/>
</clipPath>
</defs>
</svg>
